<svg width="479" height="180" viewBox="0 0 479 180" fill="none" xmlns="http://www.w3.org/2000/svg">
<rect x="22" y="26" width="71" height="71" stroke="#5EA2EF" stroke-width="6"/>
<path d="M74.944 48.6H47.04V127H29.824V48.6H1.92V34.456H74.944V48.6Z" fill="url(#paint0_linear_1_11)"/>
<path d="M96.384 106.984C99.5413 106.984 102.293 106.6 104.64 105.832C106.987 105.021 108.928 103.891 110.464 102.44C112.043 100.947 113.216 99.1547 113.984 97.064C114.752 94.9307 115.136 92.5627 115.136 89.96C115.136 87.4853 114.752 85.2453 113.984 83.24C113.216 81.2347 112.064 79.528 110.528 78.12C108.992 76.712 107.051 75.6453 104.704 74.92C102.357 74.152 99.584 73.768 96.384 73.768H83.52V106.984H96.384ZM96.384 60.456C102.571 60.456 107.925 61.1813 112.448 62.632C116.971 64.0827 120.704 66.1093 123.648 68.712C126.592 71.3147 128.768 74.4293 130.176 78.056C131.627 81.6827 132.352 85.6507 132.352 89.96C132.352 94.44 131.605 98.5573 130.112 102.312C128.619 106.024 126.379 109.224 123.392 111.912C120.405 114.6 116.651 116.691 112.128 118.184C107.648 119.677 102.4 120.424 96.384 120.424H83.52V153H66.304V60.456H96.384Z" fill="url(#paint1_linear_1_11)"/>
<line x1="65" y1="97" x2="85" y2="97" stroke="#5EA2EF" stroke-width="6"/>
<line x1="22" y1="31" x2="22" y2="49" stroke="#5EA2EF" stroke-width="6"/>
<path d="M177.136 61.265H162.984V100H157.098V61.265H142.915V56.2935H177.136V61.265ZM195.73 77.4605C197.438 77.4605 198.943 77.2572 200.244 76.8505C201.566 76.4235 202.664 75.8338 203.538 75.0815C204.433 74.3088 205.104 73.3938 205.551 72.3365C205.998 71.2792 206.222 70.11 206.222 68.829C206.222 66.2263 205.368 64.2642 203.66 62.9425C201.952 61.6208 199.39 60.96 195.974 60.96H189.508V77.4605H195.73ZM215.921 100H210.675C209.597 100 208.804 99.5832 208.296 98.7495L196.95 83.1335C196.604 82.6455 196.228 82.2998 195.822 82.0965C195.435 81.8728 194.825 81.761 193.992 81.761H189.508V100H183.622V56.2935H195.974C198.739 56.2935 201.129 56.5782 203.142 57.1475C205.155 57.6965 206.812 58.4997 208.113 59.557C209.435 60.6143 210.411 61.8953 211.041 63.4C211.671 64.8843 211.987 66.5517 211.987 68.402C211.987 69.9473 211.743 71.391 211.255 72.733C210.767 74.075 210.055 75.2848 209.12 76.3625C208.205 77.4198 207.076 78.3247 205.734 79.077C204.412 79.8293 202.908 80.3987 201.22 80.785C201.972 81.212 202.623 81.8322 203.172 82.6455L215.921 100ZM227.783 100H221.866V56.2935H227.783V100ZM251.864 78.955C253.552 78.955 255.036 78.7313 256.317 78.284C257.618 77.8367 258.706 77.2165 259.58 76.4235C260.475 75.6102 261.146 74.6443 261.593 73.526C262.041 72.4077 262.264 71.1775 262.264 69.8355C262.264 67.0498 261.4 64.8742 259.672 63.3085C257.964 61.7428 255.361 60.96 251.864 60.96H244.849V78.955H251.864ZM251.864 56.2935C254.629 56.2935 257.029 56.6188 259.062 57.2695C261.116 57.8998 262.813 58.8047 264.155 59.984C265.497 61.1633 266.494 62.5867 267.144 64.254C267.815 65.9213 268.151 67.7818 268.151 69.8355C268.151 71.8688 267.795 73.7293 267.083 75.417C266.372 77.1047 265.325 78.5585 263.942 79.7785C262.58 80.9985 260.882 81.9542 258.848 82.6455C256.835 83.3165 254.507 83.652 251.864 83.652H244.849V100H238.962V56.2935H251.864ZM302.439 78.955C304.127 78.955 305.611 78.7313 306.892 78.284C308.193 77.8367 309.281 77.2165 310.156 76.4235C311.05 75.6102 311.721 74.6443 312.169 73.526C312.616 72.4077 312.84 71.1775 312.84 69.8355C312.84 67.0498 311.975 64.8742 310.247 63.3085C308.539 61.7428 305.936 60.96 302.439 60.96H295.424V78.955H302.439ZM302.439 56.2935C305.204 56.2935 307.604 56.6188 309.637 57.2695C311.691 57.8998 313.389 58.8047 314.731 59.984C316.073 61.1633 317.069 62.5867 317.72 64.254C318.391 65.9213 318.726 67.7818 318.726 69.8355C318.726 71.8688 318.37 73.7293 317.659 75.417C316.947 77.1047 315.9 78.5585 314.517 79.7785C313.155 80.9985 311.457 81.9542 309.424 82.6455C307.411 83.3165 305.082 83.652 302.439 83.652H295.424V100H289.538V56.2935H302.439ZM350.97 95.0285V100H326.173V56.2935H332.06V95.0285H350.97ZM380.718 83.774L373.855 65.9925C373.652 65.4638 373.438 64.8538 373.215 64.1625C372.991 63.4508 372.778 62.6985 372.574 61.9055C372.147 63.5525 371.71 64.925 371.263 66.023L364.4 83.774H380.718ZM393.04 100H388.465C387.936 100 387.509 99.8678 387.184 99.6035C386.858 99.3392 386.614 99.0037 386.452 98.597L382.365 88.044H362.753L358.666 98.597C358.544 98.963 358.31 99.2883 357.965 99.573C357.619 99.8577 357.192 100 356.684 100H352.109L369.585 56.2935H375.563L393.04 100ZM434.2 56.2935V100H431.242C430.774 100 430.377 99.9187 430.052 99.756C429.747 99.5933 429.442 99.3188 429.137 98.9325L403.853 65.9925C403.893 66.5008 403.924 66.999 403.944 67.487C403.964 67.975 403.975 68.4325 403.975 68.8595V100H398.79V56.2935H401.84C402.104 56.2935 402.328 56.3138 402.511 56.3545C402.694 56.3748 402.856 56.4257 402.999 56.507C403.141 56.568 403.283 56.6697 403.426 56.812C403.568 56.934 403.72 57.0967 403.883 57.3L429.168 90.2095C429.127 89.6808 429.086 89.1725 429.046 88.6845C429.025 88.1762 429.015 87.6983 429.015 87.251V56.2935H434.2ZM457.482 77.4605C459.19 77.4605 460.695 77.2572 461.996 76.8505C463.318 76.4235 464.416 75.8338 465.29 75.0815C466.185 74.3088 466.856 73.3938 467.303 72.3365C467.75 71.2792 467.974 70.11 467.974 68.829C467.974 66.2263 467.12 64.2642 465.412 62.9425C463.704 61.6208 461.142 60.96 457.726 60.96H451.26V77.4605H457.482ZM477.673 100H472.427C471.349 100 470.556 99.5832 470.048 98.7495L458.702 83.1335C458.356 82.6455 457.98 82.2998 457.573 82.0965C457.187 81.8728 456.577 81.761 455.743 81.761H451.26V100H445.373V56.2935H457.726C460.491 56.2935 462.88 56.5782 464.893 57.1475C466.906 57.6965 468.564 58.4997 469.865 59.557C471.187 60.6143 472.163 61.8953 472.793 63.4C473.423 64.8843 473.738 66.5517 473.738 68.402C473.738 69.9473 473.494 71.391 473.006 72.733C472.518 74.075 471.807 75.2848 470.871 76.3625C469.956 77.4198 468.828 78.3247 467.486 79.077C466.164 79.8293 464.66 80.3987 462.972 80.785C463.724 81.212 464.375 81.8322 464.924 82.6455L477.673 100Z" fill="black"/>
<defs>
<linearGradient id="paint0_linear_1_11" x1="38.5" y1="154" x2="38.5" y2="0" gradientUnits="userSpaceOnUse">
<stop stop-color="#FF1CF7"/>
<stop offset="1" stop-color="#B249F8"/>
</linearGradient>
<linearGradient id="paint1_linear_1_11" x1="96" y1="26" x2="96" y2="180" gradientUnits="userSpaceOnUse">
<stop stop-color="#FF705B"/>
<stop offset="1" stop-color="#FFB457"/>
</linearGradient>
</defs>
</svg>
